<?xml version="1.0" encoding="UTF-8" standalone="no"?>
<svg
   xmlns:dc="http://purl.org/dc/elements/1.1/"
   xmlns:cc="http://creativecommons.org/ns#"
   xmlns:rdf="http://www.w3.org/1999/02/22-rdf-syntax-ns#"
   xmlns:svg="http://www.w3.org/2000/svg"
   xmlns="http://www.w3.org/2000/svg"
   xmlns:sodipodi="http://sodipodi.sourceforge.net/DTD/sodipodi-0.dtd"
   xmlns:inkscape="http://www.inkscape.org/namespaces/inkscape"
   width="111.26616mm"
   height="110.45549mm"
   viewBox="0 0 111.26616 110.45549"
   version="1.1"
   id="svg8"
   inkscape:version="1.0.1 (3bc2e813f5, 2020-09-07)"
   sodipodi:docname="domsvg.svg"
   inkscape:export-filename="C:\Users\jvasic\OneDrive - Technological University Dublin\jvk\staging\cswd\res\images\tutorials\thematrix\dom.png"
   inkscape:export-xdpi="280.186"
   inkscape:export-ydpi="280.186">
  <defs
     id="defs2">
    <rect
       x="496.09375"
       y="82.020836"
       width="234.15625"
       height="116.41667"
       id="rect949" />
  </defs>
  <sodipodi:namedview
     id="base"
     pagecolor="#ffffff"
     bordercolor="#666666"
     borderopacity="1.0"
     inkscape:pageopacity="0.0"
     inkscape:pageshadow="2"
     inkscape:zoom="1.55"
     inkscape:cx="246.1774"
     inkscape:cy="249.36636"
     inkscape:document-units="mm"
     inkscape:current-layer="layer1"
     inkscape:document-rotation="0"
     showgrid="false"
     inkscape:snap-text-baseline="false"
     inkscape:window-width="1346"
     inkscape:window-height="1040"
     inkscape:window-x="1946"
     inkscape:window-y="0"
     inkscape:window-maximized="0"
     fit-margin-top="0"
     fit-margin-left="0"
     fit-margin-right="0"
     fit-margin-bottom="0" />
  <metadata
     id="metadata5">
    <rdf:RDF>
      <cc:Work
         rdf:about="">
        <dc:format>image/svg+xml</dc:format>
        <dc:type
           rdf:resource="http://purl.org/dc/dcmitype/StillImage" />
        <dc:title />
      </cc:Work>
    </rdf:RDF>
  </metadata>
  <g
     inkscape:label="Layer 1"
     inkscape:groupmode="layer"
     id="layer1"
     transform="translate(-31.638341,-155.97057)">
    <path
       style="fill:none;stroke:#000000;stroke-width:0.264583px;stroke-linecap:butt;stroke-linejoin:miter;stroke-opacity:1"
       d="m 64.057016,159.3468 c -0.265245,-0.13262 -0.500655,-0.36836 -0.79574,-0.39787 -3.635491,-0.36355 -9.146381,5.23451 -11.538219,7.36059 -3.806741,3.38377 -6.730212,7.44034 -9.151001,11.93609 -1.010603,1.87683 -1.779461,3.90152 -2.785089,5.76911 -1.127964,2.0948 -2.816725,3.87467 -3.580826,6.16698 -0.981911,2.94573 -0.942906,6.31488 -1.392544,9.34994 -0.518703,3.50124 -2.015924,6.81732 -2.387219,10.34461 -0.124952,1.18705 0.06274,2.38887 0,3.58083 -0.08031,1.52599 -0.308282,3.05249 -0.39787,4.5755 -0.182713,3.10614 0.163544,6.2426 0,9.34994 -0.256508,4.87367 -0.198935,-1.39298 -0.198935,2.98402 0,1.19361 -0.131813,2.39452 0,3.58083 0.106624,0.9596 0.523306,1.85881 0.79574,2.78508 0.704908,2.39669 1.631383,4.67127 2.586154,6.96272 0.864303,2.07433 -0.182724,0.58142 1.392541,3.3819 0.90518,1.6092 2.54185,2.85129 3.779764,4.17763 3.836204,4.11022 7.697745,7.81989 12.930764,10.14567 1.374949,0.61109 2.928054,0.71877 4.376565,0.99468 1.687746,0.32147 3.883134,0.77185 5.570175,1.19361 1.923534,0.48088 3.829905,1.17594 5.769113,1.59146 4.936805,1.05791 10.266841,1.29181 15.31798,0.99468 6.112756,-0.35957 11.92067,-2.58306 17.904141,-3.77975 3.59108,-0.71822 7.23083,-1.28983 10.74248,-2.38722 1.57744,-0.49295 3.09069,-1.31444 4.5755,-1.98935 0.3818,-0.17355 0.81849,-0.21031 1.19361,-0.39787 0.90534,-0.45267 1.69754,-1.10678 2.58615,-1.59148 1.06544,-0.58115 2.18339,-1.09071 3.18296,-1.79041 1.90229,-1.33161 3.3452,-3.34521 4.97337,-4.97337 1.38272,-1.38273 2.80015,-2.80517 3.97869,-4.37657 0.232,-0.30933 0.35942,-0.68946 0.59681,-0.99467 0.75876,-0.97556 0.81057,-0.54394 1.39254,-1.59148 0.49425,-0.88965 0.84774,-1.92897 1.39255,-2.78509 0.27805,-0.43694 0.71662,-0.75667 0.99467,-1.19361 0.19172,-0.30127 0.21794,-0.68622 0.39787,-0.99467 0.28742,-0.49273 0.72778,-0.8884 0.99467,-1.39255 2.95796,-5.58725 3.90157,-13.65741 3.3819,-19.89348 -0.1901,-2.28119 -1.30524,-6.73475 -2.18829,-8.75313 -0.77538,-1.7723 -0.45796,-0.20029 -0.99467,-1.98935 -0.67093,-2.23644 -0.1912,-4.4904 -0.39787,-6.76379 -0.14511,-1.59624 -0.59399,-3.47432 -1.19361,-4.97337 -1.49495,-3.73736 -3.58097,-5.446 -6.16698,-8.35526 -0.44693,-0.50279 -1.36924,-1.68092 -1.98935,-2.18828 -1.37603,-1.12585 -2.91154,-2.1158 -4.17763,-3.38189 -0.74921,-0.74922 -1.37153,-1.48822 -2.18828,-2.18829 -0.93992,-0.80564 -1.98646,-1.6278 -2.78509,-2.58615 -0.60442,-0.7253 -1.04824,-1.62668 -1.59148,-2.38722 -1.94894,-2.72851 -4.19107,-5.26524 -7.16165,-6.96272 -3.51624,-2.00928 -7.92419,-3.00441 -11.73716,-4.17763 -3.753454,-1.15491 -7.459787,-2.35397 -11.140348,-3.58083 -1.663914,-0.55463 -3.334641,-0.46799 -4.973373,-0.79574 -0.455165,-0.091 -0.933026,0.0657 -1.392541,0 -1.57403,-0.22486 -3.18397,-0.59693 -4.774438,-0.79574 -1.088681,-0.13608 -2.282061,0 -3.381891,0 -3.352104,0 -6.702116,-0.0521 -9.946743,0.59681 -0.679776,0.13596 -1.761628,0.76695 -2.188282,1.19361 -0.164047,0.16405 -0.07538,1.14543 -0.198935,1.39254 -0.228705,0.45741 -1.697251,0.79574 -2.188284,0.79574"
       id="path837" />
    <path
       style="fill:none;stroke:#000000;stroke-width:0.264583px;stroke-linecap:butt;stroke-linejoin:miter;stroke-opacity:1"
       d="m 64.653821,170.28822 c -0.876266,0.86939 -2.210602,1.06115 -3.182956,1.79041 -0.300093,0.22507 -0.474081,0.60275 -0.79574,0.79574 -0.545417,0.32725 -1.109139,0.51234 -1.591479,0.99468 -0.403358,0.40335 -0.629492,0.95432 -0.994675,1.39254 -0.132622,0.13262 -0.265245,0.26525 -0.39787,0.39787 -0.132622,0.0663 -0.29302,0.0941 -0.39787,0.19893 -0.209695,0.2097 -0.23337,0.54899 -0.397869,0.79574 -0.36544,0.54817 -0.796849,1.06247 -1.193607,1.59148 -0.24977,0.33303 -0.184031,0.63828 -0.39787,0.99468 -0.631978,1.05329 -1.58777,1.97821 -1.989349,3.18295 -0.135763,0.40729 -0.113625,0.76706 -0.198935,1.19361 -0.150686,0.75343 -1.349282,3.04454 -1.790414,3.77977 -1.407888,2.34647 -2.311075,4.86201 -3.381891,7.36058 -0.371819,0.86758 -0.888373,1.82837 -0.994675,2.78509 -0.198138,1.78325 -0.0368,3.58771 -0.198935,5.37124 -0.162081,1.7829 -0.497054,3.78145 -0.198935,5.57018 0.145442,0.87264 0.314429,1.6683 0.39787,2.58615 0.09952,1.09473 -0.215146,2.30616 0,3.38189 0.282387,1.41194 0.614646,2.92782 0.79574,4.37657 0.25885,2.0708 0.0195,4.2849 0.39787,6.36591 0.175609,0.96586 0.628401,1.73152 0.994674,2.58616 0.25313,0.59063 0.218356,1.40593 0.39787,1.98934 0.210034,0.68262 0.47634,1.35055 0.795737,1.98935 0.651799,1.30359 1.548715,2.74232 2.586154,3.77976 0.783024,0.78303 0.40408,0.008 0.994675,0.79574 0.431625,0.5755 0.891981,1.28985 1.392544,1.79042 0.990214,0.99021 2.318925,1.67503 3.381891,2.58615 1.37805,1.18119 -0.740148,-0.54121 0.79574,0.99467 0.637201,0.63721 1.681469,1.65898 2.387218,2.18829 0.577668,0.43325 1.314292,0.60286 1.989347,0.79574 4.383606,1.25245 8.562872,1.59148 13.129699,1.59148 5.033335,0 10.114891,0.186 15.119048,-0.19894 2.075006,-0.15961 4.11612,-0.35627 6.16698,-0.79574 0.916638,0.11593 1.750712,-0.58688 2.586152,-0.79574 0.45489,-0.11372 0.93765,-0.0852 1.39255,-0.19893 2.22856,-0.55714 4.58071,-1.26166 6.76378,-1.98935 0.56096,-0.18699 1.22945,-0.60875 1.79041,-0.79574 3.37308,-1.12436 8.02656,-3.25212 10.54355,-5.76911 0.23445,-0.23445 0.36236,-0.56129 0.5968,-0.79574 1.09939,-1.09939 2.40984,-1.85071 2.98403,-3.38189 0.55527,-1.48072 0.5271,-3.07927 0.99467,-4.5755 0.38674,-1.23758 1.11224,-2.51839 1.39254,-3.77977 0.20921,-0.94144 0.0687,-1.67439 0.19894,-2.58615 0.10579,-0.74055 0.39317,-1.61027 0.19893,-2.38722 -0.27001,-1.08006 -1.00983,-2.08027 -1.1936,-3.18296 -0.15332,-0.91985 -0.26532,-1.85719 -0.39787,-2.78508 -0.14201,-0.99405 -0.72806,-1.85193 -0.99468,-2.78509 -0.0546,-0.19128 0.039,-0.40173 0,-0.5968 -0.15112,-0.7556 -0.68261,-1.3964 -0.79574,-2.18829 -0.074,-0.51833 0.0861,-1.07519 0,-1.59148 -0.19121,-1.14728 -0.41251,-2.334 -0.99467,-3.38189 -0.79842,-1.43715 -0.31197,-0.28333 -0.99468,-1.19361 -0.52371,-0.69828 -0.62405,-1.64597 -0.99467,-2.38721 -0.3475,-0.69499 -1.07847,-1.57268 -1.59148,-2.18829 -1.01641,-1.2197 -2.36547,-2.16219 -3.38189,-3.38189 -1.03457,-1.24148 -1.91824,-2.37011 -3.18296,-3.38189 -1.06316,-0.85053 0.23948,0.12037 -0.5968,-0.99468 -0.089,-0.11862 -0.29302,-0.0941 -0.39787,-0.19893 -0.66241,-0.66241 -1.20107,-1.59707 -1.98935,-2.18828 -1.36494,-1.02371 -2.80045,-1.95114 -4.17763,-2.98403 -0.89712,-0.67283 -1.70308,-1.48182 -2.58616,-2.18828 -0.30193,-0.24155 -0.72126,-0.32339 -0.99467,-0.5968 -0.16906,-0.16907 -0.21117,-0.44745 -0.39787,-0.59681 -0.16374,-0.13099 -0.41699,-0.091 -0.5968,-0.19893 -0.5457,-0.32742 -1.01555,-0.86451 -1.591483,-1.19361 -0.85866,-0.49067 -1.714098,-0.95652 -2.586154,-1.39255 -1.219488,-0.60974 -2.452684,-1.43619 -3.580825,-2.18828 -0.715116,-0.47674 -1.36324,-1.26146 -2.188285,-1.59148 -1.572111,-0.62884 -1.316357,-0.18931 -2.984021,-0.79574 -0.621347,-0.22594 -1.090874,-0.67915 -1.790414,-0.79574 -0.196228,-0.0327 -0.408077,0.0629 -0.596805,0 -0.06291,-0.021 0.06291,-0.17796 0,-0.19893 -0.188727,-0.0629 -0.401732,0.039 -0.596804,0 -0.942491,-0.1885 -2.098366,-0.61511 -2.984021,-0.99468 -1.959346,-0.83972 -3.985983,-0.99533 -6.166983,-1.19361 -0.462274,-0.042 -0.942221,0.11259 -1.392541,0 -0.889961,-0.22248 -4.099608,-0.49018 -4.973373,-0.19893 -0.696685,0.23223 -1.423379,0.40558 -2.188282,0.5968 -0.361585,0.0904 -0.833096,-0.0721 -1.193609,0 -0.640914,0.12819 -1.519206,0.92235 -1.989349,0.99468 -0.477142,0.0734 0.479804,0.0533 0,0 3.381894,-0.59681 0,0 0,0 -0.402002,0.1005 -3.182956,1.2399 -3.182956,1.79041"
       id="path839"
       sodipodi:nodetypes="cscscccssssscsssssssssssscsssscsscscssscsssssssccccssssssccssssscsssssscscsccsscsccc" />
    <path
       style="fill:none;stroke:#000000;stroke-width:0.264583px;stroke-linecap:butt;stroke-linejoin:miter;stroke-opacity:1"
       d="m 71.616541,199.92951 c -0.737539,0.53432 -1.549678,0.55644 -2.387219,0.79574 -0.997236,0.28492 -1.931659,1.27835 -2.785086,1.79041 -0.179813,0.10789 -0.433059,0.0679 -0.596805,0.19894 -0.186698,0.14935 -0.228809,0.42774 -0.39787,0.5968 -2.226246,2.22624 -0.370763,0.2095 -1.790414,1.39254 -2.414188,2.01183 -4.224165,5.35844 -4.97337,8.35527 -0.174874,0.69949 0,1.66404 0,2.38721 0,1.36411 -0.01,2.65607 -0.198935,3.9787 -0.157821,1.10475 0.157821,2.27714 0,3.38189 -0.499758,3.49831 -0.865439,8.89631 2.188284,11.33929 2.178627,1.7429 5.180902,2.52271 7.758457,3.38189 0.281336,0.0938 0.509635,0.31984 0.795739,0.39787 0.452372,0.12337 0.937652,0.0852 1.392545,0.19893 0.610303,0.15258 1.178433,0.4511 1.790414,0.59681 5.702432,1.35772 11.679774,1.39254 17.506264,1.39254 1.497759,0 3.08559,0.13545 4.575501,0 0.930484,-0.0846 1.732473,-0.51117 2.586154,-0.79574 3.21335,-1.07111 7.80309,-2.71197 9.94674,-5.57017 0.90011,-1.20015 1.12699,-2.85079 1.79041,-4.17763 0.74789,-1.49578 1.68148,-4.06159 1.19361,-5.76911 -0.34383,-1.20341 -1.17482,-1.95804 -1.79041,-2.98403 -0.50286,-0.8381 -0.77033,-1.60945 -1.39254,-2.38721 -0.78746,-0.98433 0.0393,0.23823 -0.99468,-0.79574 -0.52893,-0.52893 -1.11663,-1.19686 -1.59148,-1.79042 -0.24154,-0.30193 -0.32339,-0.72126 -0.5968,-0.99467 -0.9444,-0.9444 -2.2187,-2.00455 -3.38189,-2.58615 -0.994888,-0.49745 -2.375344,-1.91512 -3.381895,-2.58616 -1.464498,-0.97633 -3.568131,-2.29651 -5.172305,-2.98402 -0.443723,-0.19017 -0.944317,-0.21858 -1.392545,-0.39787 -0.137671,-0.0551 -0.265247,-0.13262 -0.39787,-0.19893 -0.132622,-0.13263 -0.225478,-0.32399 -0.39787,-0.39787 -0.310784,-0.1332 -0.669559,-0.10605 -0.994674,-0.19894 -0.600213,-0.17149 -1.207617,-0.56262 -1.790412,-0.79574 -0.911836,-0.36473 -1.923378,-0.5085 -2.785088,-0.79574 -0.639131,-0.21304 -1.349402,-0.72041 -1.98935,-0.99467 -1.010033,-0.43287 -2.21875,-0.41006 -3.182956,-0.79574 -0.22199,-0.0888 -0.369985,-0.32226 -0.596804,-0.39787 -0.188728,-0.0629 -0.401733,0.039 -0.596805,0 -0.53095,-0.10619 -1.066641,-0.46559 -1.591479,-0.5968 -1.47483,-0.36871 -2.989387,-0.50002 -4.376566,-1.19361 z"
       id="path845" />
    <path
       style="fill:none;stroke:#000000;stroke-width:0.264583px;stroke-linecap:butt;stroke-linejoin:miter;stroke-opacity:1"
       d="m 71.417605,177.44987 c -1.588757,-0.0207 -2.96046,1.06044 -4.376565,1.59148 -0.377677,0.14163 -0.857997,-0.0248 -1.19361,0.19894 -3.279251,2.18616 -5.66887,2.48436 -6.962719,6.36591 -0.02966,0.089 -0.156996,0.11506 -0.198935,0.19894 -0.08125,0.16249 -0.111726,2.27549 0,2.38721 0.578538,0.57854 1.464323,1.06646 2.188284,1.79042 0.21984,0.21984 0.713049,0.91198 0.994674,1.19361 0.148276,0.14827 0.429046,0.0731 0.596805,0.19893 0.573633,0.43023 0.257927,0.28742 0.596802,0.79574 0.329893,0.49484 0.04571,0.0229 0.39787,0.19894 0.115819,0.0579 0.880388,1.07932 0.994675,1.1936 0.328366,0.32837 1.279824,0.48409 1.591479,0.79574 0.04689,0.0469 -0.04689,0.15205 0,0.19894 0.354409,0.35441 3.123927,0.83071 3.779761,0.99467 0.911643,0.22791 1.871464,0.61302 2.785089,0.79574 0.455168,0.091 0.933026,-0.0656 1.392544,0 1.662314,0.23748 3.271282,0.60662 4.97337,0.79574 2.415387,0.26838 6.155616,0.10089 8.554199,-0.19893 1.027493,-0.12844 1.987174,-0.54653 2.984021,-0.79574 2.007243,-0.50181 7.339999,-1.52971 8.156329,-3.9787 0.06539,-0.19619 0,-1.04984 0,-1.19361 0,-2.14527 -0.674804,-4.00131 -2.387219,-5.37124 -0.64879,-0.51903 -0.91834,-1.28556 -1.591477,-1.79041 -0.795626,-0.59672 -1.591479,-1.19361 -2.387219,-1.79042 -0.661204,-0.4959 -1.506058,-0.73879 -2.188284,-1.1936 -0.69828,-0.46553 -1.416071,-1.00645 -2.188281,-1.39255 -0.684356,-0.34218 -1.47959,-0.41963 -2.188284,-0.5968 -0.2877,-0.0719 -0.510596,-0.3164 -0.79574,-0.39787 -0.445257,-0.12722 -1.304735,-0.31693 -1.790414,-0.39787 -0.270592,-0.0451 -1.550559,0.0409 -1.790412,-0.19894 -0.04689,-0.0469 0.06291,-0.17796 0,-0.19893 -0.358084,-0.11936 -0.835528,0.11936 -1.193609,0 -0.545804,-0.18194 -1.035482,-0.41148 -1.59148,-0.59681 -0.415303,-0.13843 -6.115891,-0.34895 -6.365914,-0.19893 -0.284308,0.17058 -0.530492,0.39787 -0.79574,0.5968 z"
       id="path847" />
    <path
       style="fill:none;stroke:#000000;stroke-width:0.264583px;stroke-linecap:butt;stroke-linejoin:miter;stroke-opacity:1"
       d="m 76.788845,205.49968 c -1.607259,-0.3612 -3.36551,-0.26797 -4.97337,0 -3.195259,0.53255 -6.365915,3.21572 -6.365915,6.56485 0,0.17653 -0.09014,0.8144 0,0.99468 0.152342,0.30468 0.354505,0.15557 0.596805,0.39787 0.390676,0.39067 0.790874,1.29064 1.392544,1.59147 1.097265,0.54864 2.250313,1.01536 3.381891,1.39255 0.352523,0.11751 0.827847,-0.0731 1.19361,0 2.337178,0.46744 5.278879,0.37123 7.559524,-0.19894 0.487931,-0.12198 1.168588,-0.31487 1.591479,-0.5968 0.156057,-0.10404 0.219938,-0.33856 0.39787,-0.39787 0.472747,-0.15758 0.36131,0.23549 0.79574,-0.19894 0.104846,-0.10484 0.09409,-0.29302 0.198935,-0.39786 0.600024,-0.60003 1.473358,-0.8175 1.989346,-1.59148 0.116319,-0.17448 0.05066,-0.44853 0.198935,-0.59681 0.341093,-0.34109 1.082982,-0.8766 1.392544,-1.39254 0.220351,-0.36725 0.415372,-1.95435 0.198935,-2.38722 -0.739912,-1.47982 -3.599595,-1.44697 -4.97337,-1.79041 -0.489926,-0.12248 -1.113859,0.15921 -1.591479,0 -0.183322,-0.0611 -0.875858,-0.27905 -0.994675,-0.39787 -0.04689,-0.0469 0.04689,-0.15205 0,-0.19894 -0.198935,-0.19893 -0.795739,0 -0.994674,-0.19893 -0.04689,-0.0469 0,-0.13262 0,-0.19894 -0.331558,-0.13262 -0.663115,-0.26524 -0.994675,-0.39787 z"
       id="path853" />
    <path
       style="fill:none;stroke:#000000;stroke-width:0.264583px;stroke-linecap:butt;stroke-linejoin:miter;stroke-opacity:1"
       d="m 69.428256,220.4198 c -2.596795,-0.0113 -9.151,0.36746 -9.151,3.97869 0,0.2881 -0.126072,0.94147 0,1.19361 0.483002,0.96601 3.071939,1.16586 3.978695,1.39255 0.2877,0.0719 0.504944,0.33971 0.79574,0.39787 7.502168,1.50043 16.836921,1.35188 24.468984,0.39787 2.466961,-0.30837 -0.589381,-0.0675 1.392544,-0.39787 2.226427,-0.37108 7.150071,-0.77258 8.355267,-3.18296 1.254734,-2.50948 0.0431,-2.4759 -1.989352,-2.98402 -0.2877,-0.0719 -0.50804,-0.32595 -0.79574,-0.39787 -0.257326,-0.0643 -0.538411,0.0643 -0.79574,0 -0.925766,-0.23144 -1.93195,-0.51136 -2.785086,-0.79574 -0.251634,-0.0839 -0.538414,0.0643 -0.795739,0 -1.214732,-0.30369 -2.531682,-0.34719 -3.779764,-0.59681 -0.854091,-0.17081 -1.908164,0 -2.785086,0 -2.121971,0 -4.243943,0 -6.365915,0 -2.035968,0 -6.912125,-0.42316 -8.554198,0.39787 -0.118621,0.0593 -0.304091,-0.0938 -0.39787,0 -0.04689,0.0469 0,0.13263 0,0.19894 -0.265245,0.13262 -0.530492,0.26524 -0.79574,0.39787 z"
       id="path855" />
    <path
       style="fill:none;stroke:#000000;stroke-width:0.264583px;stroke-linecap:butt;stroke-linejoin:miter;stroke-opacity:1"
       d="m 81.165413,230.96334 c -1.407578,-0.0903 -2.792261,0.073 -4.177633,0.19894 -1.557464,0.14159 -3.204117,-0.15662 -3.978696,1.39254 -0.121322,0.24265 -0.482549,1.70574 -0.198935,1.98935 0.10485,0.10485 0.293021,0.0941 0.39787,0.19894 0.792967,0.79296 0.587434,0.89286 1.790415,1.1936 0.421272,0.10532 0.772334,0.49149 1.193606,0.59681 1.734236,0.43356 3.844565,0.11027 5.570178,0.39787 2.823594,0.4706 5.663205,0.39787 8.554196,0.39787 1.092975,0 2.297242,0.13558 3.381894,0 0.766648,-0.0958 1.649481,-0.41237 2.387216,-0.59681 1.217165,-0.30429 2.186165,-1.12588 3.182958,-1.79041 0.233339,-0.15556 0.490228,-0.66252 0.596805,-0.79574 1.382003,-1.7275 -0.883052,-1.63513 -1.989349,-2.18828 -1.887133,-0.94357 -4.459772,-0.66734 -6.564849,-1.19361 -0.873752,-0.21844 -1.911335,0.21844 -2.785087,0 -0.09098,-0.0228 -0.109968,-0.16928 -0.198935,-0.19894 -0.438126,-0.14604 -5.841031,-0.20995 -6.365914,0 -0.275344,0.11014 -0.530495,0.26525 -0.79574,0.39787 z"
       id="path857" />
    <text
       xml:space="preserve"
       style="font-style:normal;font-weight:normal;font-size:10.5833px;line-height:1.25;font-family:sans-serif;fill:#000000;fill-opacity:1;stroke:none;stroke-width:0.264583"
       x="65.847427"
       y="262.99185"
       id="text861"><tspan
         sodipodi:role="line"
         id="tspan859"
         x="65.847427"
         y="262.99185"
         style="font-style:normal;font-variant:normal;font-weight:normal;font-stretch:normal;font-size:3.52778px;font-family:sans-serif;-inkscape-font-specification:'sans-serif, Normal';font-variant-ligatures:normal;font-variant-caps:normal;font-variant-numeric:normal;font-variant-east-asian:normal;stroke-width:0.264583"
         rotate="0 0 0 0 0 0 0 0 0">document</tspan></text>
    <text
       xml:space="preserve"
       style="font-style:normal;font-weight:normal;font-size:10.5833px;line-height:1.25;font-family:sans-serif;fill:#000000;fill-opacity:1;stroke:none;stroke-width:0.264583"
       x="66.640594"
       y="183.34055"
       id="text861-7"><tspan
         sodipodi:role="line"
         id="tspan859-5"
         x="66.640594"
         y="183.34055"
         style="font-style:normal;font-variant:normal;font-weight:normal;font-stretch:normal;font-size:3.52777px;font-family:sans-serif;-inkscape-font-specification:'sans-serif, Normal';font-variant-ligatures:normal;font-variant-caps:normal;font-variant-numeric:normal;font-variant-east-asian:normal;stroke-width:0.264583"
         rotate="0 0 0 0 0">head</tspan></text>
    <text
       xml:space="preserve"
       style="font-style:normal;font-weight:normal;font-size:10.5833px;line-height:1.25;font-family:sans-serif;fill:#000000;fill-opacity:1;stroke:none;stroke-width:0.264583"
       x="82.700417"
       y="234.32304"
       id="text861-5"><tspan
         sodipodi:role="line"
         x="82.700417"
         y="234.32304"
         style="font-style:normal;font-variant:normal;font-weight:normal;font-stretch:normal;font-size:3.52777px;font-family:sans-serif;-inkscape-font-specification:'sans-serif, Normal';font-variant-ligatures:normal;font-variant-caps:normal;font-variant-numeric:normal;font-variant-east-asian:normal;stroke-width:0.264583"
         rotate="0 0 0 0 0 0 0"
         id="tspan953"><tspan
           rotate="0 0 0 0"
           id="tspan955"
           style="font-style:normal;font-variant:normal;font-weight:normal;font-stretch:normal;font-size:3.52777px;font-family:sans-serif;-inkscape-font-specification:'sans-serif, Normal';font-variant-ligatures:normal;font-variant-caps:normal;font-variant-numeric:normal;font-variant-east-asian:normal;stroke-width:0.264583">img</tspan></tspan></text>
    <text
       xml:space="preserve"
       style="font-style:normal;font-weight:normal;font-size:10.5833px;line-height:1.25;font-family:sans-serif;fill:#000000;fill-opacity:1;stroke:none;stroke-width:0.264583"
       x="75.288483"
       y="223.04152"
       id="text861-3"><tspan
         sodipodi:role="line"
         id="tspan859-2"
         x="75.288483"
         y="223.04152"
         style="font-style:normal;font-variant:normal;font-weight:normal;font-stretch:normal;font-size:3.52777px;font-family:sans-serif;-inkscape-font-specification:'sans-serif, Normal';font-variant-ligatures:normal;font-variant-caps:normal;font-variant-numeric:normal;font-variant-east-asian:normal;stroke-width:0.264583"
         rotate="0 0">p</tspan></text>
    <text
       xml:space="preserve"
       style="font-style:normal;font-weight:normal;font-size:10.5833px;line-height:0.4;font-family:sans-serif;text-align:center;text-anchor:middle;fill:#000000;fill-opacity:1;stroke:none;stroke-width:0.264583"
       x="75.12249"
       y="208.86067"
       id="text861-32"><tspan
         sodipodi:role="line"
         id="tspan859-54"
         x="75.12249"
         y="208.86067"
         style="font-style:normal;font-variant:normal;font-weight:normal;font-stretch:normal;font-size:3.52777px;font-family:sans-serif;-inkscape-font-specification:'sans-serif, Normal';font-variant-ligatures:normal;font-variant-caps:normal;font-variant-numeric:normal;font-variant-east-asian:normal;text-align:center;text-anchor:middle;stroke-width:0.264583"
         rotate="0 0 0">h1</tspan><tspan
         sodipodi:role="line"
         x="75.12249"
         y="213.51567"
         style="font-style:normal;font-variant:normal;font-weight:normal;font-stretch:normal;font-size:3.52777px;font-family:sans-serif;-inkscape-font-specification:'sans-serif, Normal';font-variant-ligatures:normal;font-variant-caps:normal;font-variant-numeric:normal;font-variant-east-asian:normal;text-align:center;text-anchor:middle;stroke-width:0.264583"
         rotate="0 0 0 0 0 0 0 0 0 0 0 0"
         id="tspan945">id=&quot;pgtt&quot;</tspan><tspan
         sodipodi:role="line"
         x="75.12249"
         y="218.17067"
         style="font-style:normal;font-variant:normal;font-weight:normal;font-stretch:normal;font-size:3.52777px;font-family:sans-serif;-inkscape-font-specification:'sans-serif, Normal';font-variant-ligatures:normal;font-variant-caps:normal;font-variant-numeric:normal;font-variant-east-asian:normal;text-align:center;text-anchor:middle;stroke-width:0.264583"
         rotate="0 0 0"
         id="tspan943" /></text>
    <text
       xml:space="preserve"
       style="font-style:normal;font-weight:normal;font-size:10.5833px;line-height:1.25;font-family:sans-serif;fill:#000000;fill-opacity:1;stroke:none;stroke-width:0.264583"
       x="93.226242"
       y="217.02017"
       id="text861-9"><tspan
         sodipodi:role="line"
         id="tspan859-3"
         x="93.226242"
         y="217.02017"
         style="font-style:normal;font-variant:normal;font-weight:normal;font-stretch:normal;font-size:3.52777px;font-family:sans-serif;-inkscape-font-specification:'sans-serif, Normal';font-variant-ligatures:normal;font-variant-caps:normal;font-variant-numeric:normal;font-variant-east-asian:normal;stroke-width:0.264583"
         rotate="0 0 0 0 0">body</tspan></text>
    <text
       xml:space="preserve"
       style="font-style:normal;font-weight:normal;font-size:10.5833px;line-height:1.25;font-family:sans-serif;fill:#000000;fill-opacity:1;stroke:none;stroke-width:0.264583"
       x="105.63182"
       y="204.82552"
       id="text861-1"><tspan
         sodipodi:role="line"
         id="tspan859-1"
         x="105.63182"
         y="204.82552"
         style="font-style:normal;font-variant:normal;font-weight:normal;font-stretch:normal;font-size:3.52777px;font-family:sans-serif;-inkscape-font-specification:'sans-serif, Normal';font-variant-ligatures:normal;font-variant-caps:normal;font-variant-numeric:normal;font-variant-east-asian:normal;stroke-width:0.264583"
         rotate="0 0 0 0 0">html</tspan></text>
    <text
       xml:space="preserve"
       id="text947"
       style="font-style:normal;font-weight:normal;font-size:10.5833px;line-height:1.25;font-family:sans-serif;white-space:pre;shape-inside:url(#rect949);fill:#000000;fill-opacity:1;stroke:none;" />
    <path
       style="fill:none;stroke:#000000;stroke-width:0.264583px;stroke-linecap:butt;stroke-linejoin:miter;stroke-opacity:1"
       d="m 85.067103,186.01358 c -4.039873,0.3414 -8.078973,0.69208 -12.119623,1.02419 -0.742159,0.061 -2.741028,0.35125 -3.243279,0.8535 -0.04023,0.0402 0.04023,0.13046 0,0.1707 -0.0569,0.0569 -0.455197,0.1138 -0.512098,0.1707 -0.08047,0.0805 0.05089,0.23961 0,0.3414 -0.09809,0.19618 -0.605671,0.75991 -0.341397,1.02419 0.04023,0.0402 0.170698,-0.0569 0.170698,0 0,0.13253 -0.201189,0.31091 0,0.5121 0.04024,0.0402 0.145254,-0.0509 0.170699,0 0.220281,0.44056 -0.08425,0.29927 0.3414,0.51209 0.169918,0.085 0.328924,0.47546 0.512095,0.5121 0.223179,0.0446 0.457486,-0.0322 0.682797,0 0.451337,0.0645 0.664599,0.39223 1.024192,0.51209 0.769847,0.25662 1.728745,0.40555 2.560484,0.6828 0.07634,0.0255 0.09263,0.15118 0.170699,0.1707 0.502319,0.12558 1.027128,0.0689 1.536292,0.1707 0.586647,0.11733 0.975439,0.37188 1.53629,0.51209 1.929344,0.48234 4.247557,0.74191 6.315858,0.5121 1.929477,-0.21438 3.623821,-0.0525 5.462368,-0.5121 0.267761,-0.0669 0.585729,0.0669 0.853493,0 0.302625,-0.0756 1.070525,-0.36456 1.365591,-0.51209 0.257384,-0.12869 0.403709,-0.80742 0.512098,-1.0242 0.180277,-0.36055 0.906278,-1.08932 0.682795,-1.53628 -0.07197,-0.14395 -0.269425,-0.19746 -0.341397,-0.3414 -0.05173,-0.10346 -0.09917,-0.44057 -0.170699,-0.5121 -0.161269,-0.16127 -0.981601,-0.23475 -1.194893,-0.3414 -0.179824,-0.0899 -0.161575,-0.25148 -0.341397,-0.34139 -0.238075,-0.11904 -0.615421,-0.0517 -0.853495,-0.1707 -0.370597,-0.1853 -0.845252,-0.6828 -1.194893,-0.6828 -0.228314,0 -0.24919,-0.20994 -0.512096,-0.3414 -0.181287,-0.0906 -0.530632,-0.0185 -0.682797,-0.1707 -0.04023,-0.0402 0.04023,-0.13046 0,-0.1707 -0.08047,-0.0805 -0.260929,0.0805 -0.341397,0 -0.04024,-0.0402 0.04023,-0.13046 0,-0.1707 -0.151376,-0.15137 -0.477052,-0.0678 -0.682797,-0.17069 -0.07197,-0.036 -0.09872,-0.13472 -0.170699,-0.1707 -0.101785,-0.0509 -0.260929,0.0805 -0.341397,0 -0.04023,-0.0402 0.0569,-0.1707 0,-0.1707 -0.08047,0 -0.1138,0.2276 -0.170698,0.1707 -0.04023,-0.0402 0,-0.1138 0,-0.1707 -0.2276,-0.1138 -0.455197,-0.2276 -0.682797,-0.3414 z"
       id="path866" />
    <text
       xml:space="preserve"
       style="font-style:normal;font-weight:normal;font-size:10.5833px;line-height:1.25;font-family:sans-serif;fill:#000000;fill-opacity:1;stroke:none;stroke-width:0.264583"
       x="79.297829"
       y="190.74272"
       id="text861-7-2"><tspan
         sodipodi:role="line"
         id="tspan859-5-9"
         x="79.297829"
         y="190.74272"
         style="font-style:normal;font-variant:normal;font-weight:normal;font-stretch:normal;font-size:3.52777px;font-family:sans-serif;-inkscape-font-specification:'sans-serif, Normal';font-variant-ligatures:normal;font-variant-caps:normal;font-variant-numeric:normal;font-variant-east-asian:normal;stroke-width:0.264583"
         rotate="0 0 0 0 0 0">title</tspan></text>
  </g>
</svg>
